<?xml version="1.0" encoding="UTF-8" standalone="no"?>
<!DOCTYPE svg PUBLIC "-//W3C//DTD SVG 1.1//EN"
 "http://www.w3.org/Graphics/SVG/1.1/DTD/svg11.dtd">
<!-- Generated by graphviz version 2.38.0 (20140413.2041)
 -->
<!-- Title: controllers_diagram Pages: 1 -->
<svg width="604pt" height="597pt"
 viewBox="0.00 0.00 604.50 596.50" xmlns="http://www.w3.org/2000/svg" xmlns:xlink="http://www.w3.org/1999/xlink">
<g id="graph0" class="graph" transform="scale(1 1) rotate(0) translate(225 354)">
<title>controllers_diagram</title>
<polygon fill="none" stroke="none" points="-225,242.5 -225,-354 379.5,-354 379.5,242.5 -225,242.5"/>
<!-- _diagram_info -->
<g id="node1" class="node"><title>_diagram_info</title>
<text text-anchor="start" x="-111" y="-199.6" font-family="Times,serif" font-size="13.00">Controllers diagram</text>
<text text-anchor="start" x="-111" y="-185.6" font-family="Times,serif" font-size="13.00">Date: Dec 03 2018 &#45; 12:45</text>
<text text-anchor="start" x="-111" y="-171.6" font-family="Times,serif" font-size="13.00">Migration version: 20181130101927</text>
<text text-anchor="start" x="-111" y="-157.6" font-family="Times,serif" font-size="13.00">Generated by RailRoady 1.5.3</text>
<text text-anchor="start" x="-111" y="-143.6" font-family="Times,serif" font-size="13.00">http://railroady.prestonlee.com</text>
</g>
<!-- PagesController -->
<g id="node2" class="node"><title>PagesController</title>
<path fill="none" stroke="black" d="M-209,-17.5C-209,-17.5 -129,-17.5 -129,-17.5 -123,-17.5 -117,-23.5 -117,-29.5 -117,-29.5 -117,-98.5 -117,-98.5 -117,-104.5 -123,-110.5 -129,-110.5 -129,-110.5 -209,-110.5 -209,-110.5 -215,-110.5 -221,-104.5 -221,-98.5 -221,-98.5 -221,-29.5 -221,-29.5 -221,-23.5 -215,-17.5 -209,-17.5"/>
<text text-anchor="middle" x="-169" y="-95.3" font-family="Times,serif" font-size="14.00">PagesController</text>
<polyline fill="none" stroke="black" points="-221,-87.5 -117,-87.5 "/>
<text text-anchor="start" x="-213" y="-72.3" font-family="Times,serif" font-size="14.00">index</text>
<polyline fill="none" stroke="black" points="-221,-64.5 -117,-64.5 "/>
<polyline fill="none" stroke="black" points="-221,-40.5 -117,-40.5 "/>
<text text-anchor="start" x="-213" y="-25.3" font-family="Times,serif" font-size="14.00">_layout</text>
</g>
<!-- PostcommentsController -->
<g id="node3" class="node"><title>PostcommentsController</title>
<path fill="none" stroke="black" d="M-73,101C-73,101 55,101 55,101 61,101 67,95 67,89 67,89 67,-85 67,-85 67,-91 61,-97 55,-97 55,-97 -73,-97 -73,-97 -79,-97 -85,-91 -85,-85 -85,-85 -85,89 -85,89 -85,95 -79,101 -73,101"/>
<text text-anchor="middle" x="-9" y="-81.8" font-family="Times,serif" font-size="14.00">PostcommentsController</text>
<polyline fill="none" stroke="black" points="-85,-74 67,-74 "/>
<text text-anchor="start" x="-77" y="-58.8" font-family="Times,serif" font-size="14.00">create</text>
<text text-anchor="start" x="-77" y="-43.8" font-family="Times,serif" font-size="14.00">destroy</text>
<text text-anchor="start" x="-77" y="-28.8" font-family="Times,serif" font-size="14.00">edit</text>
<text text-anchor="start" x="-77" y="-13.8" font-family="Times,serif" font-size="14.00">new</text>
<text text-anchor="start" x="-77" y="1.2" font-family="Times,serif" font-size="14.00">show</text>
<text text-anchor="start" x="-77" y="16.2" font-family="Times,serif" font-size="14.00">update</text>
<polyline fill="none" stroke="black" points="-85,24 67,24 "/>
<polyline fill="none" stroke="black" points="-85,48 67,48 "/>
<text text-anchor="start" x="-77" y="63.2" font-family="Times,serif" font-size="14.00">_layout</text>
<text text-anchor="start" x="-77" y="78.2" font-family="Times,serif" font-size="14.00">comment_params</text>
<text text-anchor="start" x="-77" y="93.2" font-family="Times,serif" font-size="14.00">set_post</text>
</g>
<!-- UserparamsController -->
<g id="node4" class="node"><title>UserparamsController</title>
<path fill="none" stroke="black" d="M250.5,238C250.5,238 363.5,238 363.5,238 369.5,238 375.5,232 375.5,226 375.5,226 375.5,82 375.5,82 375.5,76 369.5,70 363.5,70 363.5,70 250.5,70 250.5,70 244.5,70 238.5,76 238.5,82 238.5,82 238.5,226 238.5,226 238.5,232 244.5,238 250.5,238"/>
<text text-anchor="middle" x="307" y="85.2" font-family="Times,serif" font-size="14.00">UserparamsController</text>
<polyline fill="none" stroke="black" points="238.5,93 375.5,93 "/>
<text text-anchor="start" x="246.5" y="108.2" font-family="Times,serif" font-size="14.00">create</text>
<text text-anchor="start" x="246.5" y="123.2" font-family="Times,serif" font-size="14.00">edit</text>
<text text-anchor="start" x="246.5" y="138.2" font-family="Times,serif" font-size="14.00">new</text>
<text text-anchor="start" x="246.5" y="153.2" font-family="Times,serif" font-size="14.00">show</text>
<text text-anchor="start" x="246.5" y="168.2" font-family="Times,serif" font-size="14.00">update</text>
<polyline fill="none" stroke="black" points="238.5,176 375.5,176 "/>
<polyline fill="none" stroke="black" points="238.5,200 375.5,200 "/>
<text text-anchor="start" x="246.5" y="215.2" font-family="Times,serif" font-size="14.00">_layout</text>
<text text-anchor="start" x="246.5" y="230.2" font-family="Times,serif" font-size="14.00">profile_params</text>
</g>
<!-- ApplicationController -->
<g id="node5" class="node"><title>ApplicationController</title>
<path fill="none" stroke="black" d="M12,237C12,237 124,237 124,237 130,237 136,231 136,225 136,225 136,155 136,155 136,149 130,143 124,143 124,143 12,143 12,143 6,143 0,149 0,155 0,155 0,225 0,225 0,231 6,237 12,237"/>
<text text-anchor="middle" x="68" y="158.2" font-family="Times,serif" font-size="14.00">ApplicationController</text>
<polyline fill="none" stroke="black" points="0,166 136,166 "/>
<polyline fill="none" stroke="black" points="0,190 136,190 "/>
<polyline fill="none" stroke="black" points="0,214 136,214 "/>
<text text-anchor="start" x="8" y="229.2" font-family="Times,serif" font-size="14.00">_layout</text>
</g>
<!-- PhotosController -->
<g id="node6" class="node"><title>PhotosController</title>
<path fill="none" stroke="black" d="M114.5,101C114.5,101 199.5,101 199.5,101 205.5,101 211.5,95 211.5,89 211.5,89 211.5,-85 211.5,-85 211.5,-91 205.5,-97 199.5,-97 199.5,-97 114.5,-97 114.5,-97 108.5,-97 102.5,-91 102.5,-85 102.5,-85 102.5,89 102.5,89 102.5,95 108.5,101 114.5,101"/>
<text text-anchor="middle" x="157" y="-81.8" font-family="Times,serif" font-size="14.00">PhotosController</text>
<polyline fill="none" stroke="black" points="102.5,-74 211.5,-74 "/>
<text text-anchor="start" x="110.5" y="-58.8" font-family="Times,serif" font-size="14.00">create</text>
<text text-anchor="start" x="110.5" y="-43.8" font-family="Times,serif" font-size="14.00">destroy</text>
<text text-anchor="start" x="110.5" y="-28.8" font-family="Times,serif" font-size="14.00">edit</text>
<text text-anchor="start" x="110.5" y="-13.8" font-family="Times,serif" font-size="14.00">index</text>
<text text-anchor="start" x="110.5" y="1.2" font-family="Times,serif" font-size="14.00">new</text>
<text text-anchor="start" x="110.5" y="16.2" font-family="Times,serif" font-size="14.00">show</text>
<text text-anchor="start" x="110.5" y="31.2" font-family="Times,serif" font-size="14.00">update</text>
<polyline fill="none" stroke="black" points="102.5,39 211.5,39 "/>
<polyline fill="none" stroke="black" points="102.5,63 211.5,63 "/>
<text text-anchor="start" x="110.5" y="78.2" font-family="Times,serif" font-size="14.00">_layout</text>
<text text-anchor="start" x="110.5" y="93.2" font-family="Times,serif" font-size="14.00">photo_params</text>
</g>
<!-- PostsController -->
<g id="node7" class="node"><title>PostsController</title>
<path fill="none" stroke="black" d="M148.5,-136.5C148.5,-136.5 225.5,-136.5 225.5,-136.5 231.5,-136.5 237.5,-142.5 237.5,-148.5 237.5,-148.5 237.5,-337.5 237.5,-337.5 237.5,-343.5 231.5,-349.5 225.5,-349.5 225.5,-349.5 148.5,-349.5 148.5,-349.5 142.5,-349.5 136.5,-343.5 136.5,-337.5 136.5,-337.5 136.5,-148.5 136.5,-148.5 136.5,-142.5 142.5,-136.5 148.5,-136.5"/>
<text text-anchor="middle" x="187" y="-334.3" font-family="Times,serif" font-size="14.00">PostsController</text>
<polyline fill="none" stroke="black" points="136.5,-326.5 237.5,-326.5 "/>
<text text-anchor="start" x="144.5" y="-311.3" font-family="Times,serif" font-size="14.00">create</text>
<text text-anchor="start" x="144.5" y="-296.3" font-family="Times,serif" font-size="14.00">destroy</text>
<text text-anchor="start" x="144.5" y="-281.3" font-family="Times,serif" font-size="14.00">edit</text>
<text text-anchor="start" x="144.5" y="-266.3" font-family="Times,serif" font-size="14.00">index</text>
<text text-anchor="start" x="144.5" y="-251.3" font-family="Times,serif" font-size="14.00">new</text>
<text text-anchor="start" x="144.5" y="-236.3" font-family="Times,serif" font-size="14.00">show</text>
<text text-anchor="start" x="144.5" y="-221.3" font-family="Times,serif" font-size="14.00">update</text>
<polyline fill="none" stroke="black" points="136.5,-213.5 237.5,-213.5 "/>
<polyline fill="none" stroke="black" points="136.5,-189.5 237.5,-189.5 "/>
<text text-anchor="start" x="144.5" y="-174.3" font-family="Times,serif" font-size="14.00">_layout</text>
<text text-anchor="start" x="144.5" y="-159.3" font-family="Times,serif" font-size="14.00">find_post</text>
<text text-anchor="start" x="144.5" y="-144.3" font-family="Times,serif" font-size="14.00">post_params</text>
</g>
</g>
</svg>
