<?xml version="1.0" encoding="UTF-8" standalone="no"?>
<!DOCTYPE svg PUBLIC "-//W3C//DTD SVG 1.1//EN"
 "http://www.w3.org/Graphics/SVG/1.1/DTD/svg11.dtd">
<!-- Generated by graphviz version 2.38.0 (20140413.2041)
 -->
<!-- Title: models_diagram Pages: 1 -->
<svg width="589pt" height="230pt"
 viewBox="0.00 0.00 589.34 230.00" xmlns="http://www.w3.org/2000/svg" xmlns:xlink="http://www.w3.org/1999/xlink">
<g id="graph0" class="graph" transform="scale(1 1) rotate(0) translate(4 226)">
<title>models_diagram</title>
<polygon fill="none" stroke="none" points="-4,4 -4,-226 585.343,-226 585.343,4 -4,4"/>
<!-- _diagram_info -->
<g id="node1" class="node"><title>_diagram_info</title>
<text text-anchor="start" x="8" y="-207.6" font-family="Times,serif" font-size="13.00">Models diagram</text>
<text text-anchor="start" x="8" y="-193.6" font-family="Times,serif" font-size="13.00">Date: Dec 03 2018 &#45; 12:45</text>
<text text-anchor="start" x="8" y="-179.6" font-family="Times,serif" font-size="13.00">Migration version: 20181130101927</text>
<text text-anchor="start" x="8" y="-165.6" font-family="Times,serif" font-size="13.00">Generated by RailRoady 1.5.3</text>
<text text-anchor="start" x="8" y="-151.6" font-family="Times,serif" font-size="13.00">http://railroady.prestonlee.com</text>
</g>
<!-- AdminUser -->
<g id="node2" class="node"><title>AdminUser</title>
<ellipse fill="none" stroke="black" cx="284" cy="-183" rx="51.9908" ry="18"/>
<text text-anchor="middle" x="284" y="-179.3" font-family="Times,serif" font-size="14.00">AdminUser</text>
</g>
<!-- Photo -->
<g id="node3" class="node"><title>Photo</title>
<ellipse fill="none" stroke="black" cx="294" cy="-90" rx="31.3957" ry="18"/>
<text text-anchor="middle" x="294" y="-86.3" font-family="Times,serif" font-size="14.00">Photo</text>
</g>
<!-- User -->
<g id="node4" class="node"><title>User</title>
<ellipse fill="none" stroke="black" cx="381" cy="-183" rx="27.0966" ry="18"/>
<text text-anchor="middle" x="381" y="-179.3" font-family="Times,serif" font-size="14.00">User</text>
</g>
<!-- User&#45;&gt;Photo -->
<g id="edge4" class="edge"><title>User&#45;&gt;Photo</title>
<path fill="none" stroke="#c984cb" d="M361.446,-161.301C356.121,-155.68 350.346,-149.599 345,-144 335.493,-134.043 324.948,-123.072 315.926,-113.708"/>
<ellipse fill="none" stroke="#c984cb" cx="364.258" cy="-164.272" rx="4.00002" ry="4.00002"/>
<polygon fill="#c984cb" stroke="#c984cb" points="315.702,-113.476 312.001,-103.154 312.232,-109.877 308.761,-106.277 308.761,-106.277 308.761,-106.277 312.232,-109.877 305.522,-109.4 315.702,-113.476 315.702,-113.476"/>
</g>
<!-- PostComment -->
<g id="node5" class="node"><title>PostComment</title>
<ellipse fill="none" stroke="black" cx="380" cy="-18" rx="61.99" ry="18"/>
<text text-anchor="middle" x="380" y="-14.3" font-family="Times,serif" font-size="14.00">PostComment</text>
</g>
<!-- User&#45;&gt;PostComment -->
<g id="edge3" class="edge"><title>User&#45;&gt;PostComment</title>
<path fill="none" stroke="#ac083b" d="M376.705,-156.894C373.426,-134.603 369.813,-101.142 372,-72 372.637,-63.5179 373.838,-54.3361 375.121,-46.0356"/>
<ellipse fill="none" stroke="#ac083b" cx="377.323" cy="-160.904" rx="4.00001" ry="4.00001"/>
<polygon fill="#ac083b" stroke="#ac083b" points="375.13,-45.9796 381.192,-36.8417 375.941,-41.0458 376.752,-36.1119 376.752,-36.1119 376.752,-36.1119 375.941,-41.0458 372.311,-35.3822 375.13,-45.9796 375.13,-45.9796"/>
</g>
<!-- Post -->
<g id="node7" class="node"><title>Post</title>
<ellipse fill="none" stroke="black" cx="408" cy="-90" rx="27" ry="18"/>
<text text-anchor="middle" x="408" y="-86.3" font-family="Times,serif" font-size="14.00">Post</text>
</g>
<!-- User&#45;&gt;Post -->
<g id="edge2" class="edge"><title>User&#45;&gt;Post</title>
<path fill="none" stroke="#ec6f6d" d="M388.386,-157.107C392.024,-144.844 396.414,-130.048 400.118,-117.566"/>
<ellipse fill="none" stroke="#ec6f6d" cx="387.216" cy="-161.049" rx="4.00001" ry="4.00001"/>
<polygon fill="#ec6f6d" stroke="#ec6f6d" points="400.191,-117.319 407.35,-109.012 401.613,-112.526 403.036,-107.732 403.036,-107.732 403.036,-107.732 401.613,-112.526 398.721,-106.452 400.191,-117.319 400.191,-117.319"/>
</g>
<!-- Userparam -->
<g id="node8" class="node"><title>Userparam</title>
<ellipse fill="none" stroke="black" cx="503" cy="-90" rx="50.0912" ry="18"/>
<text text-anchor="middle" x="503" y="-86.3" font-family="Times,serif" font-size="14.00">Userparam</text>
</g>
<!-- User&#45;&gt;Userparam -->
<g id="edge1" class="edge"><title>User&#45;&gt;Userparam</title>
<path fill="none" stroke="#74c321" d="M399.713,-160.976C405.328,-155.179 411.681,-149.091 418,-144 433.855,-131.228 452.984,-119.053 469.078,-109.601"/>
<ellipse fill="none" stroke="#74c321" cx="396.691" cy="-164.18" rx="4.00002" ry="4.00002"/>
<ellipse fill="#74c321" stroke="#74c321" cx="472.774" cy="-107.461" rx="4.00002" ry="4.00002"/>
</g>
<!-- ApplicationRecord -->
<g id="node6" class="node"><title>ApplicationRecord</title>
<ellipse fill="none" stroke="black" cx="504" cy="-183" rx="77.1866" ry="18"/>
<text text-anchor="middle" x="504" y="-179.3" font-family="Times,serif" font-size="14.00">ApplicationRecord</text>
</g>
<!-- Post&#45;&gt;PostComment -->
<g id="edge5" class="edge"><title>Post&#45;&gt;PostComment</title>
<path fill="none" stroke="#23c18d" d="M398.311,-64.7779C395.818,-58.544 393.122,-51.8046 390.585,-45.4634"/>
<ellipse fill="none" stroke="#23c18d" cx="399.879" cy="-68.6971" rx="4.00001" ry="4.00001"/>
<polygon fill="#23c18d" stroke="#23c18d" points="390.496,-45.241 390.961,-34.2849 388.639,-40.5986 386.782,-35.9562 386.782,-35.9562 386.782,-35.9562 388.639,-40.5986 382.604,-37.6275 390.496,-45.241 390.496,-45.241"/>
</g>
</g>
</svg>
