<?xml version="1.0" encoding="UTF-8" standalone="no"?>
<!DOCTYPE svg PUBLIC "-//W3C//DTD SVG 1.1//EN"
 "http://www.w3.org/Graphics/SVG/1.1/DTD/svg11.dtd">
<!-- Generated by graphviz version 2.38.0 (20140413.2041)
 -->
<!-- Title: models_diagram Pages: 1 -->
<svg width="863pt" height="551pt"
 viewBox="0.00 0.00 863.00 551.00" xmlns="http://www.w3.org/2000/svg" xmlns:xlink="http://www.w3.org/1999/xlink">
<g id="graph0" class="graph" transform="scale(1 1) rotate(0) translate(4 547)">
<title>models_diagram</title>
<polygon fill="none" stroke="none" points="-4,4 -4,-547 859,-547 859,4 -4,4"/>
<!-- _diagram_info -->
<g id="node1" class="node"><title>_diagram_info</title>
<text text-anchor="start" x="8" y="-491.6" font-family="Times,serif" font-size="13.00">Models diagram</text>
<text text-anchor="start" x="8" y="-477.6" font-family="Times,serif" font-size="13.00">Date: Dec 03 2018 &#45; 12:45</text>
<text text-anchor="start" x="8" y="-463.6" font-family="Times,serif" font-size="13.00">Migration version: 20181130101927</text>
<text text-anchor="start" x="8" y="-449.6" font-family="Times,serif" font-size="13.00">Generated by RailRoady 1.5.3</text>
<text text-anchor="start" x="8" y="-435.6" font-family="Times,serif" font-size="13.00">http://railroady.prestonlee.com</text>
</g>
<!-- AdminUser -->
<g id="node2" class="node"><title>AdminUser</title>
<path fill="none" stroke="black" d="M244,-391.5C244,-391.5 420,-391.5 420,-391.5 426,-391.5 432,-397.5 432,-403.5 432,-403.5 432,-530.5 432,-530.5 432,-536.5 426,-542.5 420,-542.5 420,-542.5 244,-542.5 244,-542.5 238,-542.5 232,-536.5 232,-530.5 232,-530.5 232,-403.5 232,-403.5 232,-397.5 238,-391.5 244,-391.5"/>
<text text-anchor="middle" x="332" y="-527.3" font-family="Times,serif" font-size="14.00">AdminUser</text>
<polyline fill="none" stroke="black" points="232,-519.5 432,-519.5 "/>
<text text-anchor="start" x="240" y="-504.3" font-family="Times,serif" font-size="14.00">id :INTEGER</text>
<text text-anchor="start" x="240" y="-489.3" font-family="Times,serif" font-size="14.00">email :varchar</text>
<text text-anchor="start" x="240" y="-474.3" font-family="Times,serif" font-size="14.00">encrypted_password :varchar</text>
<text text-anchor="start" x="240" y="-459.3" font-family="Times,serif" font-size="14.00">reset_password_token :varchar</text>
<text text-anchor="start" x="240" y="-444.3" font-family="Times,serif" font-size="14.00">reset_password_sent_at :datetime</text>
<text text-anchor="start" x="240" y="-429.3" font-family="Times,serif" font-size="14.00">remember_created_at :datetime</text>
<text text-anchor="start" x="240" y="-414.3" font-family="Times,serif" font-size="14.00">created_at :datetime</text>
<text text-anchor="start" x="240" y="-399.3" font-family="Times,serif" font-size="14.00">updated_at :datetime</text>
</g>
<!-- Photo -->
<g id="node3" class="node"><title>Photo</title>
<path fill="none" stroke="black" d="M355.5,-188.5C355.5,-188.5 462.5,-188.5 462.5,-188.5 468.5,-188.5 474.5,-194.5 474.5,-200.5 474.5,-200.5 474.5,-312.5 474.5,-312.5 474.5,-318.5 468.5,-324.5 462.5,-324.5 462.5,-324.5 355.5,-324.5 355.5,-324.5 349.5,-324.5 343.5,-318.5 343.5,-312.5 343.5,-312.5 343.5,-200.5 343.5,-200.5 343.5,-194.5 349.5,-188.5 355.5,-188.5"/>
<text text-anchor="middle" x="409" y="-309.3" font-family="Times,serif" font-size="14.00">Photo</text>
<polyline fill="none" stroke="black" points="343.5,-301.5 474.5,-301.5 "/>
<text text-anchor="start" x="351.5" y="-286.3" font-family="Times,serif" font-size="14.00">id :INTEGER</text>
<text text-anchor="start" x="351.5" y="-271.3" font-family="Times,serif" font-size="14.00">title :varchar</text>
<text text-anchor="start" x="351.5" y="-256.3" font-family="Times,serif" font-size="14.00">description :varchar</text>
<text text-anchor="start" x="351.5" y="-241.3" font-family="Times,serif" font-size="14.00">created_at :datetime</text>
<text text-anchor="start" x="351.5" y="-226.3" font-family="Times,serif" font-size="14.00">updated_at :datetime</text>
<text text-anchor="start" x="351.5" y="-211.3" font-family="Times,serif" font-size="14.00">image :varchar</text>
<text text-anchor="start" x="351.5" y="-196.3" font-family="Times,serif" font-size="14.00">user_id :integer</text>
</g>
<!-- User -->
<g id="node4" class="node"><title>User</title>
<path fill="none" stroke="black" d="M462,-391.5C462,-391.5 638,-391.5 638,-391.5 644,-391.5 650,-397.5 650,-403.5 650,-403.5 650,-530.5 650,-530.5 650,-536.5 644,-542.5 638,-542.5 638,-542.5 462,-542.5 462,-542.5 456,-542.5 450,-536.5 450,-530.5 450,-530.5 450,-403.5 450,-403.5 450,-397.5 456,-391.5 462,-391.5"/>
<text text-anchor="middle" x="550" y="-527.3" font-family="Times,serif" font-size="14.00">User</text>
<polyline fill="none" stroke="black" points="450,-519.5 650,-519.5 "/>
<text text-anchor="start" x="458" y="-504.3" font-family="Times,serif" font-size="14.00">id :INTEGER</text>
<text text-anchor="start" x="458" y="-489.3" font-family="Times,serif" font-size="14.00">email :varchar</text>
<text text-anchor="start" x="458" y="-474.3" font-family="Times,serif" font-size="14.00">encrypted_password :varchar</text>
<text text-anchor="start" x="458" y="-459.3" font-family="Times,serif" font-size="14.00">reset_password_token :varchar</text>
<text text-anchor="start" x="458" y="-444.3" font-family="Times,serif" font-size="14.00">reset_password_sent_at :datetime</text>
<text text-anchor="start" x="458" y="-429.3" font-family="Times,serif" font-size="14.00">remember_created_at :datetime</text>
<text text-anchor="start" x="458" y="-414.3" font-family="Times,serif" font-size="14.00">created_at :datetime</text>
<text text-anchor="start" x="458" y="-399.3" font-family="Times,serif" font-size="14.00">updated_at :datetime</text>
</g>
<!-- User&#45;&gt;Photo -->
<g id="edge4" class="edge"><title>User&#45;&gt;Photo</title>
<path fill="none" stroke="#88c4b0" d="M494.98,-384.64C483.561,-367.755 471.572,-350.027 460.293,-333.349"/>
<ellipse fill="none" stroke="#88c4b0" cx="497.253" cy="-388.002" rx="4.00002" ry="4.00002"/>
<polygon fill="#88c4b0" stroke="#88c4b0" points="460.069,-333.017 458.195,-322.212 457.268,-328.875 454.467,-324.733 454.467,-324.733 454.467,-324.733 457.268,-328.875 450.739,-327.254 460.069,-333.017 460.069,-333.017"/>
</g>
<!-- PostComment -->
<g id="node5" class="node"><title>PostComment</title>
<path fill="none" stroke="black" d="M496.5,-0.5C496.5,-0.5 603.5,-0.5 603.5,-0.5 609.5,-0.5 615.5,-6.5 615.5,-12.5 615.5,-12.5 615.5,-109.5 615.5,-109.5 615.5,-115.5 609.5,-121.5 603.5,-121.5 603.5,-121.5 496.5,-121.5 496.5,-121.5 490.5,-121.5 484.5,-115.5 484.5,-109.5 484.5,-109.5 484.5,-12.5 484.5,-12.5 484.5,-6.5 490.5,-0.5 496.5,-0.5"/>
<text text-anchor="middle" x="550" y="-106.3" font-family="Times,serif" font-size="14.00">PostComment</text>
<polyline fill="none" stroke="black" points="484.5,-98.5 615.5,-98.5 "/>
<text text-anchor="start" x="492.5" y="-83.3" font-family="Times,serif" font-size="14.00">id :INTEGER</text>
<text text-anchor="start" x="492.5" y="-68.3" font-family="Times,serif" font-size="14.00">user_id :integer</text>
<text text-anchor="start" x="492.5" y="-53.3" font-family="Times,serif" font-size="14.00">post_id :integer</text>
<text text-anchor="start" x="492.5" y="-38.3" font-family="Times,serif" font-size="14.00">body :varchar</text>
<text text-anchor="start" x="492.5" y="-23.3" font-family="Times,serif" font-size="14.00">created_at :datetime</text>
<text text-anchor="start" x="492.5" y="-8.3" font-family="Times,serif" font-size="14.00">updated_at :datetime</text>
</g>
<!-- User&#45;&gt;PostComment -->
<g id="edge3" class="edge"><title>User&#45;&gt;PostComment</title>
<path fill="none" stroke="#12d7ba" d="M527.599,-383.281C525.713,-373.802 524.106,-364.231 523,-355 512.579,-268.067 511.035,-244.734 523,-158 524.195,-149.339 525.969,-140.36 528.047,-131.525"/>
<ellipse fill="none" stroke="#12d7ba" cx="528.432" cy="-387.295" rx="4.00001" ry="4.00001"/>
<polygon fill="#12d7ba" stroke="#12d7ba" points="528.093,-131.34 534.874,-122.723 529.3,-126.488 530.508,-121.636 530.508,-121.636 530.508,-121.636 529.3,-126.488 526.141,-120.55 528.093,-131.34 528.093,-131.34"/>
</g>
<!-- Post -->
<g id="node7" class="node"><title>Post</title>
<path fill="none" stroke="black" d="M543.5,-196C543.5,-196 650.5,-196 650.5,-196 656.5,-196 662.5,-202 662.5,-208 662.5,-208 662.5,-305 662.5,-305 662.5,-311 656.5,-317 650.5,-317 650.5,-317 543.5,-317 543.5,-317 537.5,-317 531.5,-311 531.5,-305 531.5,-305 531.5,-208 531.5,-208 531.5,-202 537.5,-196 543.5,-196"/>
<text text-anchor="middle" x="597" y="-301.8" font-family="Times,serif" font-size="14.00">Post</text>
<polyline fill="none" stroke="black" points="531.5,-294 662.5,-294 "/>
<text text-anchor="start" x="539.5" y="-278.8" font-family="Times,serif" font-size="14.00">id :INTEGER</text>
<text text-anchor="start" x="539.5" y="-263.8" font-family="Times,serif" font-size="14.00">user_id :integer</text>
<text text-anchor="start" x="539.5" y="-248.8" font-family="Times,serif" font-size="14.00">title :varchar</text>
<text text-anchor="start" x="539.5" y="-233.8" font-family="Times,serif" font-size="14.00">body :varchar</text>
<text text-anchor="start" x="539.5" y="-218.8" font-family="Times,serif" font-size="14.00">created_at :datetime</text>
<text text-anchor="start" x="539.5" y="-203.8" font-family="Times,serif" font-size="14.00">updated_at :datetime</text>
</g>
<!-- User&#45;&gt;Post -->
<g id="edge2" class="edge"><title>User&#45;&gt;Post</title>
<path fill="none" stroke="#c6d53d" d="M568.65,-383.265C572.842,-364.669 577.249,-345.119 581.306,-327.123"/>
<ellipse fill="none" stroke="#c6d53d" cx="567.715" cy="-387.414" rx="4.00001" ry="4.00001"/>
<polygon fill="#c6d53d" stroke="#c6d53d" points="581.321,-327.055 587.91,-318.29 582.42,-322.178 583.52,-317.3 583.52,-317.3 583.52,-317.3 582.42,-322.178 579.13,-316.31 581.321,-327.055 581.321,-327.055"/>
</g>
<!-- Userparam -->
<g id="node8" class="node"><title>Userparam</title>
<path fill="none" stroke="black" d="M693,-158.5C693,-158.5 843,-158.5 843,-158.5 849,-158.5 855,-164.5 855,-170.5 855,-170.5 855,-342.5 855,-342.5 855,-348.5 849,-354.5 843,-354.5 843,-354.5 693,-354.5 693,-354.5 687,-354.5 681,-348.5 681,-342.5 681,-342.5 681,-170.5 681,-170.5 681,-164.5 687,-158.5 693,-158.5"/>
<text text-anchor="middle" x="768" y="-339.3" font-family="Times,serif" font-size="14.00">Userparam</text>
<polyline fill="none" stroke="black" points="681,-331.5 855,-331.5 "/>
<text text-anchor="start" x="689" y="-316.3" font-family="Times,serif" font-size="14.00">id :INTEGER</text>
<text text-anchor="start" x="689" y="-301.3" font-family="Times,serif" font-size="14.00">user_id :integer</text>
<text text-anchor="start" x="689" y="-286.3" font-family="Times,serif" font-size="14.00">firstname :varchar</text>
<text text-anchor="start" x="689" y="-271.3" font-family="Times,serif" font-size="14.00">lastname :varchar</text>
<text text-anchor="start" x="689" y="-256.3" font-family="Times,serif" font-size="14.00">age :integer</text>
<text text-anchor="start" x="689" y="-241.3" font-family="Times,serif" font-size="14.00">created_at :datetime</text>
<text text-anchor="start" x="689" y="-226.3" font-family="Times,serif" font-size="14.00">updated_at :datetime</text>
<text text-anchor="start" x="689" y="-211.3" font-family="Times,serif" font-size="14.00">avatar_file_name :varchar</text>
<text text-anchor="start" x="689" y="-196.3" font-family="Times,serif" font-size="14.00">avatar_content_type :varchar</text>
<text text-anchor="start" x="689" y="-181.3" font-family="Times,serif" font-size="14.00">avatar_file_size :integer</text>
<text text-anchor="start" x="689" y="-166.3" font-family="Times,serif" font-size="14.00">avatar_updated_at :datetime</text>
</g>
<!-- User&#45;&gt;Userparam -->
<g id="edge1" class="edge"><title>User&#45;&gt;Userparam</title>
<path fill="none" stroke="#0ad677" d="M639.396,-385.704C650.461,-375.461 661.549,-365.047 672,-355 673.001,-354.038 674.006,-353.069 675.015,-352.094"/>
<ellipse fill="none" stroke="#0ad677" cx="636.194" cy="-388.66" rx="4.00002" ry="4.00002"/>
<ellipse fill="#0ad677" stroke="#0ad677" cx="677.957" cy="-349.236" rx="4.00002" ry="4.00002"/>
</g>
<!-- ApplicationRecord -->
<g id="node6" class="node"><title>ApplicationRecord</title>
<ellipse fill="none" stroke="black" cx="745" cy="-467" rx="77.1866" ry="18"/>
<text text-anchor="middle" x="745" y="-463.3" font-family="Times,serif" font-size="14.00">ApplicationRecord</text>
</g>
<!-- Post&#45;&gt;PostComment -->
<g id="edge5" class="edge"><title>Post&#45;&gt;PostComment</title>
<path fill="none" stroke="#d37b7a" d="M580.611,-188.025C576.17,-169.744 571.356,-149.924 566.889,-131.532"/>
<ellipse fill="none" stroke="#d37b7a" cx="581.571" cy="-191.978" rx="4.00001" ry="4.00001"/>
<polygon fill="#d37b7a" stroke="#d37b7a" points="566.879,-131.489 568.891,-120.709 565.698,-126.63 564.518,-121.771 564.518,-121.771 564.518,-121.771 565.698,-126.63 560.145,-122.834 566.879,-131.489 566.879,-131.489"/>
</g>
</g>
</svg>
